<svg width="66" height="66" viewBox="0 0 66 66" fill="none" xmlns="http://www.w3.org/2000/svg">
<path d="M66 33C66 51.2254 51.2254 66 33 66C14.7746 66 0 51.2254 0 33C0 14.7746 14.7746 0 33 0C51.2254 0 66 14.7746 66 33ZM6.70148 33C6.70148 47.5243 18.4757 59.2985 33 59.2985C47.5243 59.2985 59.2985 47.5243 59.2985 33C59.2985 18.4757 47.5243 6.70148 33 6.70148C18.4757 6.70148 6.70148 18.4757 6.70148 33Z" fill="white"/>
<path fill-rule="evenodd" clip-rule="evenodd" d="M26.9381 9.39194L27.3296 9C16.8114 11.5479 9 21.0248 9 32.3262C9 45.414 19.476 56.055 32.5 56.3211V55.8262C31.6667 54.8262 29.9 52.7262 29.5 52.3262C29 51.8262 27 48.8262 25 44.8262C23.547 41.9203 25.0079 36.7327 25.7879 34.431C25.8093 34.1904 25.8725 33.8362 26 33.3262C26.4 31.7262 29.5 29.3262 31 28.3262H36C36.1667 27.8262 37.1 26.8262 39.5 26.8262C41.9 26.8262 40.5 25.1596 39.5 24.3262L35 23.8262C34.6667 23.6596 33.7 23.2262 32.5 22.8262C31.3 22.4262 28.3333 22.9929 27 23.3262L23 23.8262C24.5 24.4929 27.4 25.8262 27 25.8262C26.5 25.8262 23.5 27.3262 22.5 27.8262C21.7 28.2262 17.5 32.6596 15.5 34.8262C15.1667 35.4929 14.5 36.4262 14.5 34.8262C14.5 33.2262 17.1667 30.1596 18.5 28.8262V22.8262C18.5 19.2523 24.085 12.4259 26.9381 9.39194ZM26.5 35.3262C26.3333 36.8262 26.1 40.4262 26.5 42.8262C26.9 45.2262 33.6667 52.4929 37 55.8262V55.9944C42.1983 55.1223 46.8299 52.5792 50.3237 48.9362C46.421 47.6485 39.4611 45.4065 35.5 44.3262C31.8314 43.3257 28.3714 38.3164 27.0326 35.3262H26.5ZM57 32.3262C57 37.5507 55.3306 42.3853 52.4962 46.3256C47.1616 45.4919 36.4995 43.3259 34.5 41.8262L27.5 34.8262H31.5C36.5 33.4929 46.5 29.2262 46.5 22.8262V12.4803C49.9491 14.8311 52.7537 18.0575 54.5939 21.8397L54.5 21.8262C54.3333 23.6596 53.8 27.6262 53 28.8262C52 30.3262 50.4142 32.1191 49 32.8262C48 33.3262 39.8333 37.3262 38 37.8262C40.3333 37.8262 50.5 34.3262 52 33.3262C53.5 32.3262 56 30.3262 56.5 29.3262C56.5712 29.1837 56.6541 29.0074 56.7441 28.8091C56.9127 29.9571 57 31.1314 57 32.3262Z" fill="white"/>
</svg>
