<svg width="79" height="79" viewBox="0 0 79 79" fill="none" xmlns="http://www.w3.org/2000/svg">
<rect width="79" height="79" rx="11" fill="#0F0E0E"/>
<path d="M73 40C73 58.2254 58.2254 73 40 73C21.7746 73 7 58.2254 7 40C7 21.7746 21.7746 7 40 7C58.2254 7 73 21.7746 73 40ZM13.7015 40C13.7015 54.5243 25.4757 66.2985 40 66.2985C54.5243 66.2985 66.2985 54.5243 66.2985 40C66.2985 25.4757 54.5243 13.7015 40 13.7015C25.4757 13.7015 13.7015 25.4757 13.7015 40Z" fill="white"/>
<path fill-rule="evenodd" clip-rule="evenodd" d="M33.9381 16.3919L34.3296 16C23.8114 18.5479 16 28.0248 16 39.3262C16 52.414 26.476 63.055 39.5 63.3211V62.8262C38.6667 61.8262 36.9 59.7262 36.5 59.3262C36 58.8262 34 55.8262 32 51.8262C30.547 48.9203 32.0079 43.7327 32.7879 41.431C32.8093 41.1904 32.8725 40.8362 33 40.3262C33.4 38.7262 36.5 36.3262 38 35.3262H43C43.1667 34.8262 44.1 33.8262 46.5 33.8262C48.9 33.8262 47.5 32.1596 46.5 31.3262L42 30.8262C41.6667 30.6596 40.7 30.2262 39.5 29.8262C38.3 29.4262 35.3333 29.9929 34 30.3262L30 30.8262C31.5 31.4929 34.4 32.8262 34 32.8262C33.5 32.8262 30.5 34.3262 29.5 34.8262C28.7 35.2262 24.5 39.6596 22.5 41.8262C22.1667 42.4929 21.5 43.4262 21.5 41.8262C21.5 40.2262 24.1667 37.1596 25.5 35.8262V29.8262C25.5 26.2523 31.085 19.4259 33.9381 16.3919ZM33.5 42.3262C33.3333 43.8262 33.1 47.4262 33.5 49.8262C33.9 52.2262 40.6667 59.4929 44 62.8262V62.9944C49.1983 62.1223 53.8299 59.5792 57.3237 55.9362C53.421 54.6485 46.4611 52.4065 42.5 51.3262C38.8314 50.3257 35.3714 45.3164 34.0326 42.3262H33.5ZM64 39.3262C64 44.5507 62.3306 49.3853 59.4962 53.3256C54.1616 52.4919 43.4995 50.3259 41.5 48.8262L34.5 41.8262H38.5C43.5 40.4929 53.5 36.2262 53.5 29.8262V19.4803C56.9491 21.8311 59.7537 25.0575 61.5939 28.8397L61.5 28.8262C61.3333 30.6596 60.8 34.6262 60 35.8262C59 37.3262 57.4142 39.1191 56 39.8262C55 40.3262 46.8333 44.3262 45 44.8262C47.3333 44.8262 57.5 41.3262 59 40.3262C60.5 39.3262 63 37.3262 63.5 36.3262C63.5712 36.1837 63.6541 36.0074 63.7441 35.8091C63.9127 36.9571 64 38.1314 64 39.3262Z" fill="white"/>
</svg>
